<svg width="200px" height="200px"><path d="M 49.5, 90 A 4.5 4.5 360 0 1 49.5, 90" stroke="black"  fill="none"/><path d="M 94.5, 90 A 4.5 4.5 360 0 1 94.5, 90" stroke="black"  fill="none"/><path d="M 94.5, 90 A 4.5 4.5 360 0 1 94.5, 90" stroke="black"  fill="none"/><path d="M 139.5, 90 A 4.5 4.5 360 0 1 139.5, 90" stroke="black"  fill="none"/><path d="M 184.5, 90 A 4.5 4.5 360 0 1 184.5, 90" stroke="black"  fill="none"/><line x1="0" y1="90" x2="40.5" y2="90" stroke="black" /><line x1="26.25" y1="90" x2="20.25" y2="84" stroke="black" /><line x1="26.25" y1="90" x2="20.25" y2="96" stroke="black" /><line x1="175.9750776405004" y1="87.9875388202502" x2="225" y2="90" stroke="black" /><line x1="206.48248995237472" y1="89.23986070098789" x2="200.73363011111297" y2="82.99881827800053" stroke="black" /><line x1="206.48248995237472" y1="89.23986070098789" x2="200.2414475293874" y2="94.98872054224965" stroke="black" /><line x1="86.81801948466054" y1="86.81801948466054" x2="130.5097811628164" y2="89.70346198523369" stroke="black" /><line x1="114.65085877331661" y1="88.65612475463554" x2="109.0592843434269" y2="82.27378228536898" stroke="black" /><line x1="114.65085877331661" y1="88.65612475463554" x2="108.26851630405005" y2="94.24769918452526" stroke="black" /><line x1="42.98753882025019" y1="85.97507764050037" x2="85.51640182177898" y2="89.61614146322748" stroke="black" stroke-dasharray="4"/><line x1="70.23010122530927" y1="88.30742093422728" x2="64.76378170337793" y2="81.81747864756923" stroke="black" /><line x1="70.23010122530927" y1="88.30742093422728" x2="63.74015893865123" y2="93.77374045615862" stroke="black" /><line x1="131.2557736754797" y1="87.50384911698647" x2="175.50588877123306" y2="89.76986033920484" stroke="black" stroke-dasharray="4"/><line x1="159.37297952837898" y1="88.94370760915587" x2="153.6876841044166" y2="82.64470642307306" stroke="black" /><line x1="159.37297952837898" y1="88.94370760915587" x2="153.0739783422962" y2="94.62900303311824" stroke="black" /><line x1="0" y1="0" x2="86.81801948466054" y2="86.81801948466054" stroke="black" /><line x1="47.65165042944955" y1="47.65165042944955" x2="47.65165042944955" y2="39.166369055210986" stroke="black" /><line x1="47.65165042944955" y1="47.65165042944955" x2="39.166369055210986" y2="47.65165042944955" stroke="black" /><line x1="131.2557736754797" y1="87.50384911698647" x2="240" y2="0" stroke="black" /><line x1="190.30241866361416" y1="39.99044184433808" x2="181.8664041235847" y2="39.077392732618904" stroke="black" /><line x1="190.30241866361416" y1="39.99044184433808" x2="189.389369551895" y2="48.42645638436757" stroke="black" /><path d="M 171.05736862460898, 88.26074073494712 A 62.393468300870495 62.393468300870495 180 0 1 46.27043202286798, 88.26074073494713" stroke="black"  fill="none"/></svg>