<svg width="200px" height="200px">
    <path d="M 49.5, 90 A 4.5 4.5 360 0 1 49.5, 90" stroke="black" fill="none" />
    <path d="M 94.5, 90 A 4.5 4.5 360 0 1 94.5, 90" stroke="black" fill="none" />
    <path d="M 94.5, 90 A 4.5 4.5 360 0 1 94.5, 90" stroke="black" fill="none" />
    <path d="M 139.5, 90 A 4.5 4.5 360 0 1 139.5, 90" stroke="black" fill="none" />
    <path d="M 184.5, 90 A 4.5 4.5 360 0 1 184.5, 90" stroke="black" fill="none" />
    <line x1="0" y1="90" x2="40.5" y2="90" stroke="black" />
    <line x1="26.25" y1="90" x2="20.25" y2="84" stroke="black" />
    <line x1="26.25" y1="90" x2="20.25" y2="96" stroke="black" />
    <line x1="175.9750776405004" y1="87.9875388202502" x2="225" y2="90" stroke="black" />
    <line x1="206.48248995237472" y1="89.23986070098789" x2="200.73363011111297" y2="82.99881827800053"
        stroke="black" />
    <line x1="206.48248995237472" y1="89.23986070098789" x2="200.2414475293874" y2="94.98872054224965" stroke="black" />
    <line x1="86.81801948466054" y1="86.81801948466054" x2="130.5097811628164" y2="89.70346198523369" stroke="black" />
    <line x1="114.65085877331661" y1="88.65612475463554" x2="109.0592843434269" y2="82.27378228536898" stroke="black" />
    <line x1="114.65085877331661" y1="88.65612475463554" x2="108.26851630405005" y2="94.24769918452526"
        stroke="black" />
    <line x1="42.98753882025019" y1="85.97507764050037" x2="85.51640182177898" y2="89.61614146322748" stroke="black"
        stroke-dasharray="4" />
    <line x1="70.23010122530927" y1="88.30742093422728" x2="64.76378170337793" y2="81.81747864756923" stroke="black" />
    <line x1="70.23010122530927" y1="88.30742093422728" x2="63.74015893865123" y2="93.77374045615862" stroke="black" />
    <line x1="131.2557736754797" y1="87.50384911698647" x2="175.50588877123306" y2="89.76986033920484" stroke="black"
        stroke-dasharray="4" />
    <line x1="159.37297952837898" y1="88.94370760915587" x2="153.6876841044166" y2="82.64470642307306" stroke="black" />
    <line x1="159.37297952837898" y1="88.94370760915587" x2="153.0739783422962" y2="94.62900303311824" stroke="black" />
    <line x1="0" y1="0" x2="0" y2="0" stroke="black" />
    <line x1="0" y1="0" x2="0.043645023516686796" y2="2.077675320042956" stroke="black" />
    <line x1="0.043645023516686796" y1="2.077675320042956" x2="0.3362908249714851" y2="3.9063498621478003"
        stroke="black" />
    <line x1="0.3362908249714851" y1="3.9063498621478003" x2="1.0659741076575306" y2="5.297986923021399"
        stroke="black" />
    <line x1="1.0659741076575306" y1="5.297986923021399" x2="2.3137295572475316" y2="6.17155181699104" stroke="black" />
    <line x1="2.3137295572475316" y1="6.17155181699104" x2="4.033749724557626" y2="6.5728519932405876" stroke="black" />
    <line x1="4.033749724557626" y1="6.5728519932405876" x2="6.064600286698231" y2="6.663321774659624" stroke="black" />
    <line x1="6.064600286698231" y1="6.663321774659624" x2="8.168744799536253" y2="6.680497605381245" stroke="black" />
    <line x1="8.168744799536253" y1="6.680497605381245" x2="10.09070190359198" y2="6.879860844885162" stroke="black" />
    <line x1="10.09070190359198" y1="6.879860844885162" x2="11.619596071063613" y2="7.4722870209731695"
        stroke="black" />
    <line x1="11.619596071063613" y1="7.4722870209731695" x2="12.640787289574302" y2="8.572416146022123"
        stroke="black" />
    <line x1="12.640787289574302" y1="8.572416146022123" x2="13.1639389354122" y2="10.170584843743866" stroke="black" />
    <line x1="13.1639389354122" y1="10.170584843743866" x2="13.320651841993088" y2="12.135192280722622"
        stroke="black" />
    <line x1="13.320651841993088" y1="12.135192280722622" x2="13.332243826100687" y2="14.24492064017467"
        stroke="black" />
    <line x1="13.332243826100687" y1="14.24492064017467" x2="13.455563367609276" y2="16.242921442225725"
        stroke="black" />
    <line x1="13.455563367609276" y1="16.242921442225725" x2="13.920104143706594" y2="17.899701009688048"
        stroke="black" />
    <line x1="13.920104143706594" y1="17.899701009688048" x2="14.871816972846466" y2="19.069308524107818"
        stroke="black" />
    <line x1="14.871816972846466" y1="19.069308524107818" x2="16.33737596417856" y2="19.725069876335375"
        stroke="black" />
    <line x1="16.33737596417856" y1="19.725069876335375" x2="18.21764776533647" y2="19.96611841873711" stroke="black" />
    <line x1="18.21764776533647" y1="19.96611841873711" x2="20.31196286449356" y2="19.993123663139663" stroke="black" />
    <line x1="20.31196286449356" y1="19.993123663139663" x2="22.36724648545197" y2="20.059160385740892"
        stroke="black" />
    <line x1="22.36724648545197" y1="20.059160385740892" x2="24.13998011914732" y2="20.407747095605185"
        stroke="black" />
    <line x1="24.13998011914732" y1="20.407747095605185" x2="25.455823347672492" y2="21.21322421063966"
        stroke="black" />
    <line x1="25.455823347672492" y1="21.21322421063966" x2="26.252298458915988" y2="22.53806944295581"
        stroke="black" />
    <line x1="26.252298458915988" y1="22.53806944295581" x2="26.594087169473198" y2="24.317601075958244"
        stroke="black" />
    <line x1="26.594087169473198" y1="24.317601075958244" x2="26.65719428457011" y2="26.375814304420977"
        stroke="black" />
    <line x1="26.65719428457011" y1="26.375814304420977" x2="26.68585558336183" y2="28.468473349188905"
        stroke="black" />
    <line x1="26.68585558336183" y1="28.468473349188905" x2="26.932740382174806" y2="30.34290889393557"
        stroke="black" />
    <line x1="26.932740382174806" y1="30.34290889393557" x2="27.597089273719657" y2="31.799880345950367"
        stroke="black" />
    <line x1="27.597089273719657" y1="31.799880345950367" x2="28.775933081237003" y2="32.742356881992656"
        stroke="black" />
    <line x1="28.775933081237003" y1="32.742356881992656" x2="30.440336328899914" y2="33.1992739778894"
        stroke="black" />
    <line x1="30.440336328899914" y1="33.1992739778894" x2="32.44248165545631" y2="33.31844899489264" stroke="black" />
    <line x1="32.44248165545631" y1="33.31844899489264" x2="34.55186065957422" y2="33.33039033433439" stroke="black" />
    <line x1="34.55186065957422" y1="33.33039033433439" x2="36.51171039574932" y2="33.491860941718926" stroke="black" />
    <line x1="36.51171039574932" y1="33.491860941718926" x2="38.10187789828527" y2="34.02301378274262" stroke="black" />
    <line x1="38.10187789828527" y1="34.02301378274262" x2="39.192721305399196" y2="35.05349071918833" stroke="black" />
    <line x1="39.192721305399196" y1="35.05349071918833" x2="39.776850708404176" y2="36.590681659743005"
        stroke="black" />
    <line x1="39.776850708404176" y1="36.590681659743005" x2="39.970937459087864" y2="38.517915252618955"
        stroke="black" />
    <line x1="39.970937459087864" y1="38.517915252618955" x2="39.98714895373924" y2="40.62302410152723"
        stroke="black" />
    <line x1="39.98714895373924" y1="40.62302410152723" x2="40.08120265494039" y2="42.65029074388572" stroke="black" />
    <line x1="40.08120265494039" y1="42.65029074388572" x2="40.489757538268194" y2="44.363056204117555"
        stroke="black" />
    <line x1="40.489757538268194" y1="44.363056204117555" x2="41.37247172130271" y2="45.60166236464268"
        stroke="black" />
    <line x1="41.37247172130271" y1="45.60166236464268" x2="42.7729125881721" y2="46.322541841332914" stroke="black" />
    <line x1="42.7729125881721" y1="46.322541841332914" x2="44.607889974452426" y2="46.60888479861222" stroke="black" />
    <line x1="44.607889974452426" y1="46.60888479861222" x2="46.687824020777015" y2="46.65027109584727"
        stroke="black" />
    <line x1="46.687824020777015" y1="46.65027109584727" x2="48.76316093423819" y2="46.69625452594573" stroke="black" />
    <line x1="48.76316093423819" y1="46.69625452594573" x2="50.585472460383826" y2="46.995263343359724"
        stroke="black" />
    <line x1="50.585472460383826" y1="46.995263343359724" x2="51.96827978414555" y2="47.73377636315764"
        stroke="black" />
    <line x1="51.96827978414555" y1="47.73377636315764" x2="52.83271004744349" y2="48.990666443419336" stroke="black" />
    <line x1="52.83271004744349" y1="48.990666443419336" x2="53.226807175631315" y2="50.71788965879115"
        stroke="black" />
    <line x1="53.226807175631315" y1="50.71788965879115" x2="53.31376904897919" y2="52.7522481290029" stroke="black" />
    <line x1="53.31376904897919" y1="52.7522481290029" x2="53.33199096985862" y2="54.85534655168311" stroke="black" />
    <line x1="53.33199096985862" y1="54.85534655168311" x2="53.53669817839501" y2="56.77195968670637" stroke="black" />
    <line x1="53.53669817839501" y1="56.77195968670637" x2="54.13745781239355" y2="58.29252039626746" stroke="black" />
    <line x1="54.13745781239355" y1="58.29252039626746" x2="55.246869563095096" y2="59.30442898912554" stroke="black" />
    <line x1="55.246869563095096" y1="59.30442898912554" x2="56.85299734370886" y2="59.81962155207141" stroke="black" />
    <line x1="56.85299734370886" y1="59.81962155207141" x2="58.822291659744366" y2="59.97164757959554" stroke="black" />
    <line x1="58.822291659744366" y1="59.97164757959554" x2="60.93228718296419" y2="59.982972399935356"
        stroke="black" />
    <line x1="60.93228718296419" y1="59.982972399935356" x2="62.92607002248603" y2="60.11050990397315" stroke="black" />
    <line x1="62.92607002248603" y1="60.11050990397315" x2="64.57517920545588" y2="60.58272106456294" stroke="black" />
    <line x1="64.57517920545588" y1="60.58272106456294" x2="65.73554189105771" y2="61.54367872252075" stroke="black" />
    <line x1="65.73554189105771" y1="61.54367872252075" x2="66.38274742666111" y2="63.017793530476965" stroke="black" />
    <line x1="66.38274742666111" y1="63.017793530476965" x2="66.61802392693666" y2="64.90383737376105" stroke="black" />
    <line x1="66.61802392693666" y1="64.90383737376105" x2="66.6434541009305" y2="66.99972754332686" stroke="black" />
    <line x1="66.6434541009305" y1="66.99972754332686" x2="66.71249835700898" y2="69.052003630808" stroke="black" />
    <line x1="66.71249835700898" y1="69.052003630808" x2="67.0679388551499" y2="70.81788347622673" stroke="black" />
    <line x1="67.0679388551499" y1="70.81788347622673" x2="67.88243796685602" y2="72.12470470808024" stroke="black" />
    <line x1="67.88243796685602" y1="72.12470470808024" x2="69.21626450480049" y2="72.91219851369542" stroke="black" />
    <line x1="69.21626450480049" y1="72.91219851369542" x2="71.0025378155361" y2="73.24724554651944" stroke="black" />
    <line x1="71.0025378155361" y1="73.24724554651944" x2="73.06360249600357" y2="73.30750120961159" stroke="black" />
    <line x1="73.06360249600357" y1="73.30750120961159" x2="75.15452463214918" y2="73.33789941702562" stroke="black" />
    <line x1="75.15452463214918" y1="73.33789941702562" x2="77.023060163454" y2="73.59068422928043" stroke="black" />
    <line x1="77.023060163454" y1="73.59068422928043" x2="78.47141302626815" y2="74.26365171002591" stroke="black" />
    <line x1="78.47141302626815" y1="74.26365171002591" x2="79.40466252857117" y2="75.45172255128254" stroke="black" />
    <line x1="79.40466252857117" y1="75.45172255128254" x2="79.85400324585336" y2="77.12370217755999" stroke="black" />
    <line x1="79.85400324585336" y1="77.12370217755999" x2="79.96910750108712" y2="79.12991826588586" stroke="black" />
    <line x1="79.96910750108712" y1="79.12991826588586" x2="79.98148036005834" y2="81.23886575047428" stroke="black" />
    <line x1="79.98148036005834" y1="81.23886575047428" x2="80.14777911724076" y2="83.19388733685147" stroke="black" />
    <line x1="80.14777911724076" y1="83.19388733685147" x2="80.68697463887261" y2="84.77601215877927" stroke="black" />
    <line x1="80.68697463887261" y1="84.77601215877927" x2="81.72673965802556" y2="85.85756748318595" stroke="black" />
    <line x1="81.72673965802556" y1="85.85756748318595" x2="83.27219003680662" y2="86.43343744796454" stroke="black" />
    <line x1="83.27219003680662" y1="86.43343744796454" x2="85.20463222489231" y2="86.62231560343848" stroke="black" />
    <line x1="47.65165042944955" y1="47.65165042944955" x2="47.65165042944955" y2="39.166369055210986" stroke="black" />
    <line x1="47.65165042944955" y1="47.65165042944955" x2="39.166369055210986" y2="47.65165042944955" stroke="black" />
    <line x1="131.2557736754797" y1="87.50384911698647" x2="131.2557736754797" y2="87.50384911698647" stroke="black" />
    <line x1="131.2557736754797" y1="87.50384911698647" x2="133.3260820700404" y2="87.68402340761884" stroke="black" />
    <line x1="133.3260820700404" y1="87.68402340761884" x2="135.1756288703259" y2="87.58984920942606" stroke="black" />
    <line x1="135.1756288703259" y1="87.58984920942606" x2="136.63770261966926" y2="87.01414811188549" stroke="black" />
    <line x1="136.63770261966926" y1="87.01414811188549" x2="137.64045877786933" y2="85.86763628327246"
        stroke="black" />
    <line x1="137.64045877786933" y1="85.86763628327246" x2="138.22450977029783" y2="84.20078426654914"
        stroke="black" />
    <line x1="138.22450977029783" y1="84.20078426654914" x2="138.5329816497605" y2="82.19146003022549" stroke="black" />
    <line x1="138.5329816497605" y1="82.19146003022549" x2="138.7764718470748" y2="80.10138068630593" stroke="black" />
    <line x1="138.7764718470748" y1="80.10138068630593" x2="139.18148757516326" y2="78.21203501356716" stroke="black" />
    <line x1="139.18148757516326" y1="78.21203501356716" x2="139.9349889636153" y2="76.7557651872493" stroke="black" />
    <line x1="139.9349889636153" y1="76.7557651872493" x2="141.13861469850096" y2="75.85888131134044" stroke="black" />
    <line x1="141.13861469850096" y1="75.85888131134044" x2="142.78379732724792" y2="75.51073629990154"
        stroke="black" />
    <line x1="142.78379732724792" y1="75.51073629990154" x2="144.75386086983156" y2="75.56633265503432"
        stroke="black" />
    <line x1="144.75386086983156" y1="75.56633265503432" x2="146.85258716790207" y2="75.78182291133133"
        stroke="black" />
    <line x1="146.85258716790207" y1="75.78182291133133" x2="148.85225693329602" y2="75.8742119998854" stroke="black" />
    <line x1="148.85225693329602" y1="75.8742119998854" x2="150.54940337176652" y2="75.5906443109561" stroke="black" />
    <line x1="150.54940337176652" y1="75.5906443109561" x2="151.8146279503674" y2="74.77031156588198" stroke="black" />
    <line x1="151.8146279503674" y1="74.77031156588198" x2="152.62428167125006" y2="73.38382429208157" stroke="black" />
    <line x1="152.62428167125006" y1="73.38382429208157" x2="153.06625517112454" y2="71.54040739093514"
        stroke="black" />
    <line x1="153.06625517112454" y1="71.54040739093514" x2="153.31846002809957" y2="69.46115807257507"
        stroke="black" />
    <line x1="153.31846002809957" y1="69.46115807257507" x2="153.60526980247846" y2="67.42491354781077"
        stroke="black" />
    <line x1="153.60526980247846" y1="67.42491354781077" x2="154.14258556389544" y2="65.69998195413478"
        stroke="black" />
    <line x1="154.14258556389544" y1="65.69998195413478" x2="155.08497577965608" y2="64.47845116609118"
        stroke="black" />
    <line x1="155.08497577965608" y1="64.47845116609118" x2="156.48783256317708" y2="63.829158984288384"
        stroke="black" />
    <line x1="156.48783256317708" y1="63.829158984288384" x2="158.2938097527545" y2="63.68083924100791"
        stroke="black" />
    <line x1="158.2938097527545" y1="63.68083924100791" x2="160.34686325196603" y2="63.839570243556494"
        stroke="black" />
    <line x1="160.34686325196603" y1="63.839570243556494" x2="162.4304560667035" y2="64.03625356789271"
        stroke="black" />
    <line x1="162.4304560667035" y1="64.03625356789271" x2="164.32057411332198" y2="63.99249873796804" stroke="black" />
    <line x1="164.32057411332198" y1="63.99249873796804" x2="165.84057267908062" y2="63.48878292347084"
        stroke="black" />
    <line x1="165.84057267908062" y1="63.48878292347084" x2="166.90442520852122" y2="62.41819778481294"
        stroke="black" />
    <line x1="166.90442520852122" y1="62.41819778481294" x2="167.53778560452534" y2="60.81262436321957"
        stroke="black" />
    <line x1="167.53778560452534" y1="60.81262436321957" x2="167.87170725817785" y2="58.8349274899472" stroke="black" />
    <line x1="167.87170725817785" y1="58.8349274899472" x2="168.11055660798257" y2="56.739080795482415"
        stroke="black" />
    <line x1="168.11055660798257" y1="56.739080795482415" x2="168.48197710818772" y2="54.807985107158785"
        stroke="black" />
    <line x1="168.48197710818772" y1="54.807985107158785" x2="169.181154171843" y2="53.284204460114296"
        stroke="black" />
    <line x1="169.181154171843" y1="53.284204460114296" x2="170.32302697435574" y2="52.310577961773106"
        stroke="black" />
    <line x1="170.32302697435574" y1="52.310577961773106" x2="171.9141473347074" y2="51.895247796660136"
        stroke="black" />
    <line x1="171.9141473347074" y1="51.895247796660136" x2="173.851075601664" y2="51.90966573566067" stroke="black" />
    <line x1="173.851075601664" y1="51.90966573566067" x2="175.9457062879824" y2="52.120066225783894" stroke="black" />
    <line x1="175.9457062879824" y1="52.120066225783894" x2="177.9713228540955" y2="52.24470035039378" stroke="black" />
    <line x1="177.9713228540955" y1="52.24470035039378" x2="179.71810582401406" y2="52.02281779033851" stroke="black" />
    <line x1="179.71810582401406" y1="52.02281779033851" x2="181.04450391075886" y2="51.27850759606416"
        stroke="black" />
    <line x1="181.04450391075886" y1="51.27850759606416" x2="181.9118907081871" y2="49.963767323174366"
        stroke="black" />
    <line x1="181.9118907081871" y1="49.963767323174366" x2="182.39402178235886" y2="48.17025570496231"
        stroke="black" />
    <line x1="182.39402178235886" y1="48.17025570496231" x2="182.6589767366506" y2="46.10685139779048" stroke="black" />
    <line x1="182.6589767366506" y1="46.10685139779048" x2="182.92800746286733" y2="44.04851220111529" stroke="black" />
    <line x1="182.92800746286733" y1="44.04851220111529" x2="183.42136796169936" y2="42.26895579869169"
        stroke="black" />
    <line x1="183.42136796169936" y1="42.26895579869169" x2="184.30438848172636" y2="40.97364412335202"
        stroke="black" />
    <line x1="184.30438848172636" y1="40.97364412335202" x2="185.6469969084712" y2="40.24947911011311" stroke="black" />
    <line x1="185.6469969084712" y1="40.24947911011311" x2="187.40659797920364" y2="40.04352607167339" stroke="black" />
    <line x1="187.40659797920364" y1="40.04352607167339" x2="189.43850208881832" y2="40.175973956025985"
        stroke="black" />
    <line x1="189.43850208881832" y1="40.175973956025985" x2="191.53135035139107" y2="40.38415936311963"
        stroke="black" />
    <line x1="191.53135035139107" y1="40.38415936311963" x2="193.45886262685192" y2="40.386875705897666"
        stroke="black" />
    <line x1="193.45886262685192" y1="40.386875705897666" x2="195.0352387910701" y2="39.95322239023201"
        stroke="black" />
    <line x1="195.0352387910701" y1="39.95322239023201" x2="196.16064908624696" y2="38.95913733330545" stroke="black" />
    <line x1="196.16064908624696" y1="38.95913733330545" x2="196.8456759273097" y2="37.41777168830177" stroke="black" />
    <line x1="196.8456759273097" y1="37.41777168830177" x2="197.20872295766264" y2="35.4762699834438" stroke="black" />
    <line x1="197.20872295766264" y1="35.4762699834438" x2="197.4470257078102" y2="33.37974400963962" stroke="black" />
    <line x1="197.4470257078102" y1="33.37974400963962" x2="197.78836145866012" y2="31.411260905495798"
        stroke="black" />
    <line x1="197.78836145866012" y1="31.411260905495798" x2="198.4352814191465" y2="29.82253844947482"
        stroke="black" />
    <line x1="198.4352814191465" y1="29.82253844947482" x2="199.51551912606266" y2="28.772315768763054"
        stroke="black" />
    <line x1="199.51551912606266" y1="28.772315768763054" x2="201.05071681939106" y2="28.28748846471496"
        stroke="black" />
    <line x1="201.05071681939106" y1="28.28748846471496" x2="202.9511266671564" y2="28.256523631624628"
        stroke="black" />
    <line x1="202.9511266671564" y1="28.256523631624628" x2="205.03758416475782" y2="28.4567670018886" stroke="black" />
    <line x1="205.03758416475782" y1="28.4567670018886" x2="207.08537385427616" y2="28.608956476054317"
        stroke="black" />
    <line x1="207.08537385427616" y1="28.608956476054317" x2="208.87924750579776" y2="28.44559522437229"
        stroke="black" />
    <line x1="208.87924750579776" y1="28.44559522437229" x2="210.26612439114217" y2="27.776444239996852"
        stroke="black" />
    <line x1="210.26612439114217" y1="27.776444239996852" x2="211.19257078499743" y2="26.53509948267931"
        stroke="black" />
    <line x1="211.19257078499743" y1="26.53509948267931" x2="211.71788240444295" y2="24.79524990374263"
        stroke="black" />
    <line x1="211.71788240444295" y1="24.79524990374263" x2="211.9995667493979" y2="22.752635820805654"
        stroke="black" />
    <line x1="211.9995667493979" y1="22.752635820805654" x2="212.25477977337516" y2="20.677124861347703"
        stroke="black" />
    <line x1="212.25477977337516" y1="20.677124861347703" x2="212.70715853248242" y2="18.846638955539106"
        stroke="black" />
    <line x1="212.70715853248242" y1="18.846638955539106" x2="213.53206703447208" y2="17.47910935486935"
        stroke="black" />
    <line x1="213.53206703447208" y1="17.47910935486935" x2="214.81366101361016" y2="16.679119461164316"
        stroke="black" />
    <line x1="214.81366101361016" y1="16.679119461164316" x2="216.5242836718936" y2="16.412299162345658"
        stroke="black" />
    <line x1="216.5242836718936" y1="16.412299162345658" x2="218.5312370277666" y2="16.513739834567165"
        stroke="black" />
    <line x1="218.5312370277666" y1="16.513739834567165" x2="220.62927101000878" y2="16.728369724721656"
        stroke="black" />
    <line x1="220.62927101000878" y1="16.728369724721656" x2="222.5908358335169" y2="16.77340441153993"
        stroke="black" />
    <line x1="222.5908358335169" y1="16.77340441153993" x2="224.22179412277404" y2="16.407582294368996"
        stroke="black" />
    <line x1="224.22179412277404" y1="16.407582294368996" x2="225.4089525121538" y2="15.49023384730443"
        stroke="black" />
    <line x1="225.4089525121538" y1="15.49023384730443" x2="226.14777532958254" y2="14.015722425152928"
        stroke="black" />
    <line x1="226.14777532958254" y1="14.015722425152928" x2="226.54349508724982" y2="12.114824310760573"
        stroke="black" />
    <line x1="226.54349508724982" y1="12.114824310760573" x2="226.7853478925124" y2="10.022710119989775"
        stroke="black" />
    <line x1="226.7853478925124" y1="10.022710119989775" x2="227.10024184897327" y2="8.021366833094197"
        stroke="black" />
    <line x1="227.10024184897327" y1="8.021366833094197" x2="227.69720203902287" y2="6.3705575473128695"
        stroke="black" />
    <line x1="227.69720203902287" y1="6.3705575473128695" x2="228.71619389366523" y2="5.244222411111426"
        stroke="black" />
    <line x1="228.71619389366523" y1="5.244222411111426" x2="230.19385477354342" y2="4.687892009462862"
        stroke="black" />
    <line x1="230.19385477354342" y1="4.687892009462862" x2="232.05452386528103" y2="4.607539888711564"
        stroke="black" />
    <line x1="232.05452386528103" y1="4.607539888711564" x2="234.1287665873603" y2="4.792603511715354" stroke="black" />
    <line x1="234.1287665873603" y1="4.792603511715354" x2="236.19485808491496" y2="4.967537310563184" stroke="black" />
    <line x1="236.19485808491496" y1="4.967537310563184" x2="238.0330692071263" y2="4.859275851587305" stroke="black" />
    <line x1="238.0330692071263" y1="4.859275851587305" x2="239.4794638666655" y2="4.264089777015147" stroke="black" />
    <line x1="239.4794638666655" y1="4.264089777015147" x2="240.46603631134298" y2="3.097465857061732" stroke="black" />
    <line x1="240.46603631134298" y1="3.097465857061732" x2="241.03736130402734" y2="1.414798776083021"
        stroke="black" />
    <line x1="190.30241866361416" y1="39.99044184433808" x2="181.8664041235847" y2="39.077392732618904"
        stroke="black" />
    <line x1="190.30241866361416" y1="39.99044184433808" x2="189.389369551895" y2="48.42645638436757" stroke="black" />
    <line x1="171.05736862460898" y1="88.26074073494712" x2="171.05517164729423" y2="88.78433336493775"
        stroke="black" />
    <line x1="171.68240666484613" y1="88.78959717228604" x2="171.67574962889242" y2="89.31841636580354"
        stroke="black" />
    <line x1="172.29656363213243" y1="89.32883694304039" x2="172.28535978596904" y2="89.86279102283541"
        stroke="black" />
    <line x1="172.8934215865718" y1="89.87810261095275" x2="172.8775874041428" y2="90.41704605438407" stroke="black" />
    <line x1="173.46669988718614" y1="90.43682854062166" x2="173.44615681027852" y2="90.9805631391704" stroke="black" />
    <line x1="174.01032182373723" y1="91.00424907921793" x2="173.98499793330382" y2="91.55252565687354"
        stroke="black" />
    <line x1="174.51847903621135" y1="91.57940985072436" x2="174.488310626646" y2="92.13193052256759" stroke="black" />
    <line x1="174.98569302282417" y1="92.16118200607904" x2="174.9506260544877" y2="92.71760295252501" stroke="black" />
    <line x1="175.40687306967774" y1="92.74827923139482" x2="175.36686447665411" y2="93.30821395797062"
        stroke="black" />
    <line x1="175.77736997484845" y1="93.33927727781484" x2="175.73238880691937" y2="93.90230032509035"
        stroke="black" />
    <line x1="176.0930249862724" y1="93.93263574105387" x2="176.04305336639902" y2="94.49828680448209" stroke="black" />
    <line x1="176.35021342578534" y1="94.52672178673735" x2="176.2952473069563" y2="95.09451020174282" stroke="black" />
    <line x1="176.54588253047987" y1="95.11983548970794" x2="176.48593223858475" y2="95.68924503343952"
        stroke="black" />
    <line x1="176.67758310649776" y1="95.71023643189672" x2="176.61267365888207" y2="96.28073038967568"
        stroke="black" />
    <line x1="176.74349465875855" y1="96.29617118447055" x2="176.67366585127004" y2="96.86719762615435"
        stroke="black" />
    <line x1="176.7424437321747" y1="96.8759012860256" x2="176.66774999077626" y2="97.44689849530181" stroke="black" />
    <line x1="176.6739152747989" y1="97.44773131979552" x2="176.59442527116383" y2="98.01813331784449" stroke="black" />
    <line x1="176.5380569102611" y1="98.01003668931104" x2="176.45385294413046" y2="98.57927879334375" stroke="black" />
    <line x1="176.33567608490844" y1="98.56129069374539" x2="176.24685323933835" y2="99.1288150506474" stroke="black" />
    <line x1="176.06823013339215" y1="99.10009051130464" x2="175.97489521230364" y2="99.66535154699763"
        stroke="black" />
    <line x1="175.7378093841718" y1="99.6251817113954" x2="175.64007964479518" y2="100.18765143756053" stroke="black" />
    <line x1="175.34711350266207" y1="100.13548093378544" x2="175.24511519849494" y2="100.69465405526516"
        stroke="black" />
    <line x1="174.8994213436746" y1="100.6300963953563" x2="174.79328809641382" y2="101.18549516384182"
        stroke="black" />
    <line x1="174.39855465559182" y1="101.10834591205932" x2="174.2884256771066" y2="101.65952467455708"
        stroke="black" />
    <line x1="173.84883604555407" y1="101.56977215499904" x2="173.73485423331368" y2="102.11632154901258"
        stroke="black" />
    <line x1="173.25504167711165" y1="102.01415489478927" x2="173.1373516085266" y2="102.55570564611894"
        stroke="black" />
    <line x1="172.62234922859875" y1="102.44152002702248" x2="172.50109508145465" y2="102.97774631052498"
        stroke="black" />
    <line x1="171.9562816913026" y1="102.85214521337545" x2="171.83160511883403" y2="103.38276754189124"
        stroke="black" />
    <line x1="171.26264763076708" y1="103.24656201701947" x2="171.13468562091512" y2="103.7713496289104"
        stroke="black" />
    <line x1="170.5474785718123" y1="103.62555445705392" x2="170.41636132081751" y2="104.14432717834043"
        stroke="black" />
    <line x1="169.81696419765672" y1="103.99015395405232" x2="169.68281302835007" y2="104.50278351693345"
        stroke="black" />
    <line x1="169.0773860755902" y1="104.34163068689702" x2="168.940311430549" y2="104.84804149241475" stroke="black" />
    <line x1="168.33505063572932" y1="104.68148142926522" x2="168.19515017486665" y2="105.18165074796919"
        stroke="black" />
    <line x1="167.59622213535343" y1="105.01141398179644" x2="167.4535789665102" y2="105.50537159240801"
        stroke="black" />
    <line x1="166.8670563391282" y1="105.33332836250351" x2="166.72173740884614" y2="105.82115563470062"
        stroke="black" />
    <line x1="166.15353563521415" y1="105.64929496277915" x2="166.00559030510388" y2="106.13112339625869"
        stroke="black" />
    <line x1="165.46140628897325" y1="105.96152991881523" x2="165.31086512096928" y2="106.43753915666908"
        stroke="black" />
    <line x1="164.7961185099516" y1="106.2723679878302" x2="164.64299228129482" y2="106.74278332793146"
        stroke="black" />
    <line x1="164.16276997434676" y1="106.5842332546676" x2="164.00704894037924" y2="107.04932268814073"
        stroke="black" />
    <line x1="163.56605340466334" y1="106.89960802659905" x2="163.40770682449744" y2="107.35967883748516"
        stroke="black" />
    <line x1="163.01020876119398" y1="107.2210003021004" x2="162.84918469805967" y2="107.67639526696888"
        stroke="black" />
    <line x1="162.49898054688788" y1="107.55091022258193" x2="162.33520595151344" y2="108.00200345303537"
        stroke="black" />
    <line x1="162.03558066869851" y1="107.89179593421603" x2="161.86896175047917" y2="108.33898840893714"
        stroke="black" />
    <line x1="161.62265723531405" y1="108.2460392998469" x2="161.45308012231763" y2="108.68975413601036"
        stroke="black" />
    <line x1="161.26226960399313" y1="108.61591190828891" x2="161.089601289087" y2="109.05658942476826"
        stroke="black" />
    <line x1="160.95586991882607" y1="109.00354182998518" x2="160.77995948543355" y2="109.44163445680348"
        stroke="black" />
    <line x1="160.70429130992045" y1="109.41088156394376" x2="160.52497142717533" y2="109.8468486538228"
        stroke="black" />
    <line x1="160.5077428485996" y1="109.8396776111021" x2="160.32483152201183" y2="110.27398020974832"
        stroke="black" />
    <line x1="160.36581127854646" y1="110.29144209387026" x2="160.1791138387699" y2="110.7245377257872"
        stroke="black" />
    <line x1="160.27746946777228" y1="110.7674268207178" x2="160.08678077671905" y2="111.199764346859" stroke="black" />
    <line x1="160.2410914521883" y1="111.26860016852004" x2="160.04619830261197" y2="111.70061477099827"
        stroke="black" />
    <line x1="160.25447386923477" y1="111.79562712424942" x2="160.05515755104466" y2="112.2277354716152"
        stroke="black" />
    <line x1="160.31486351029068" y1="112.34885279183953" x2="160.1109025143028" y2="112.78144843615438"
        stroke="black" />
    <line x1="160.41899065421958" y1="112.92828963007126" x2="160.21016348183082" y2="113.36173868415804"
        stroke="black" />
    <line x1="160.56310778213953" y1="113.53360864359746" x2="160.34919582756163" y2="113.96824578348733"
        stroke="black" />
    <line x1="160.74303321602375" y1="114.16413470225042" x2="160.52382368626007" y2="114.60025953600008"
        stroke="black" />
    <line x1="160.9541991716696" y1="114.81884611412157" x2="160.7294880083826" y2="115.25671995389595"
        stroke="black" />
    <line x1="161.19170367048207" y1="115.4963785261623" x2="160.96129843729963" y2="115.93622159581241"
        stroke="black" />
    <line x1="161.45036571489834" y1="116.19503317285239" x2="161.21408841355662" y2="116.63702227822309"
        stroke="black" />
    <line x1="161.72478309954724" y1="116.91278943946628" x2="161.4824728785691" y2="117.35705612340054"
        stroke="black" />
    <line x1="162.00939220473225" y1="117.64732165229948" x2="161.76090792510075" y2="118.09395085082558"
        stroke="black" />
    <line x1="162.29852910080123" y1="118.39601995456556" x2="162.04375172429522" y2="118.84504916512387"
        stroke="black" />
    <line x1="162.5864912815862" y1="119.15601507420604" x2="162.32532604909608" y2="119.60743404105773"
        stroke="black" />
    <line x1="162.8675993424435" y1="119.92420673922746" x2="162.59997771165996" y2="120.37795765545135"
        stroke="black" />
    <line x1="163.13625792348864" y1="120.69729544803123" x2="162.86213923783532" y2="121.15327366782465"
        stroke="black" />
    <line x1="163.38701525130017" y1="121.4718172571456" x2="163.10638811483884" y2="121.9298725065616"
        stroke="black" />
    <line x1="163.61462063248493" y1="122.24418120738557" x2="163.32750396872365" y2="122.70411927622573"
        stroke="black" />
    <line x1="163.81407927977682" y1="123.01070897229278" x2="163.52052305582674" y2="123.47229386469307"
        stroke="black" />
    <line x1="163.98070388544122" y1="123.76767628023838" x2="163.6807894867516" y2="124.23063279658953"
        stroke="black" />
    <line x1="164.1101623972439" y1="124.5113556342411" x2="163.8040026421595" y2="124.97537235253007" stroke="black" />
    <line x1="164.1985214986273" y1="125.23805983174003" x2="163.88626028620607" y2="125.70279245223573"
        stroke="black" />
    <line x1="164.24228534645056" y1="125.94418577058333" x2="163.92409693530684" y2="126.40926078405847"
        stroke="black" />
    <line x1="164.2384291760757" y1="126.62625801758881" x2="163.91451709642214" y2="127.09127665401462"
        stroke="black" />
    <line x1="164.1844274440485" y1="127.28097161238142" x2="163.85502304954625" y2="127.7455140242821"
        stroke="black" />
    <line x1="164.07827624241466" y1="127.90523358190595" x2="163.74363691285367" y2="128.36886321434787"
        stroke="black" />
    <line x1="163.91850978508185" y1="128.49620265008218" x2="163.57891679524548" y2="128.95847074761463"
        stroke="black" />
    <line x1="163.7042108348107" y1="129.05132664245113" x2="163.3599669090814" y2="129.51177684223106"
        stroke="black" />
    <line x1="163.43501500860316" y1="129.56837710723048" x2="163.08644158488437" y2="130.02655006705828"
        stroke="black" />
    <line x1="163.1111089686559" y1="130.04548070174474" x2="162.75854319896894" y2="130.50091871181343"
        stroke="black" />
    <line x1="162.73322257486268" y1="130.48114692644086" x2="162.37701409348267" y2="130.93339845425442"
        stroke="black" />
    <line x1="162.3026151423001" y1="130.87429182729363" x2="161.94312263546956" y2="131.32291594642643"
        stroke="black" />
    <line x1="161.82105601244643" y1="131.2242573309282" x2="161.45864362651747" y2="131.6688279860614"
        stroke="black" />
    <line x1="161.29079970933375" y1="131.53082592475965" x2="160.92583333659198" y2="131.97093598771642"
        stroke="black" />
    <line x1="160.7145560107138" y1="131.7942304463361" x2="160.34739949410613" y2="132.2294955206159" stroke="black" />
    <line x1="160.09545531897976" y1="132.01515880128318" x2="159.72646661846977" y2="132.44522073583" stroke="black" />
    <line x1="159.43700976642776" y1="132.19475348715414" x2="159.0665371307161" y2="132.619283563745" stroke="black" />
    <line x1="158.7430705339198" y1="132.3346058604212" x2="158.37144872177785" y2="132.75330762308437"
        stroke="black" />
    <line x1="158.01778190065147" y1="132.43674514510667" x2="157.64532849610995" y2="132.84935684432193"
        stroke="black" />
    <line x1="157.26553257512674" y1="132.50362224342317" x2="156.89254444023607" y2="132.90991887247233"
        stroke="black" />
    <line x1="156.49090488326803" y1="132.53808847054717" x2="156.11765479110068" y2="132.9378833762107"
        stroke="black" />
    <line x1="155.6986224085903" y1="132.54336939655076" x2="155.32535589759993" y2="132.93651545133315"
        stroke="black" />
    <line x1="154.89349669137505" y1="132.5230340378363" x2="154.52042918017145" y2="132.9094243659873"
        stroke="black" />
    <line x1="154.08037359870164" y1="132.4809596974418" x2="153.70768779776643" y2="132.86052795216395"
        stroke="black" />
    <line x1="153.26407997502756" y1="132.42129280761807" x2="152.89192362890932" y2="132.79401300195673"
        stroke="black" />
    <line x1="152.44937117383142" y1="132.34840617846314" x2="152.0778551639486" y2="132.7142920773982"
        stroke="black" />
    <line x1="151.64088005480315" y1="132.26685310250483" x2="151.27007688918724" y2="132.62595718865396"
        stroke="black" />
    <line x1="150.84306800842046" y1="132.1813188063816" x2="150.47301072059105" y2="132.5337308364219"
        stroke="black" />
    <line x1="150.06017854080702" y1="132.0965697766514" x2="149.69086001552796" y2="132.442414950019" stroke="black" />
    <line x1="149.2961939169055" y1="132.0174015168018" x2="148.92756665587973" y2="132.35683828239024"
        stroke="black" />
    <line x1="148.55479531967643" y1="131.94858531634105" x2="148.1867716553461" y2="132.2818028467382"
        stroke="black" />
    <line x1="147.83932693775833" y1="131.89481463009227" x2="147.47177969834303" y2="132.22202999633691"
        stroke="black" />
    <line x1="147.15276434436953" y1="131.86065167624167" x2="146.78552796815555" y2="132.18210675910282"
        stroke="black" />
    <line x1="146.49768747680793" y1="131.85047486512983" x2="146.13055956855538" y2="132.16643304148698"
        stroke="black" />
    <line x1="145.87625846937135" y1="131.86842766713448" x2="145.50900178659154" y2="132.17917031213688"
        stroke="black" />
    <line x1="145.29020453356299" y1="131.91836951726043" x2="144.92254938539682" y2="132.22419236454945"
        stroke="black" />
    <line x1="144.7408060187777" y1="132.00382933630277" x2="144.37245305533503" y2="132.30503873967865"
        stroke="black" />
    <line x1="144.22888972501008" y1="132.12796222383912" x2="143.85951309036733" y2="132.42487136433436"
        stroke="black" />
    <line x1="143.75482747722003" y1="132.2935098470705" x2="143.38407829487696" y2="132.58643492945453"
        stroke="black" />
    <line x1="143.31853990956722" y1="132.50276501198877" x2="142.946050065081" y2="132.79202149427624"
        stroke="black" />
    <line x1="142.91950534750023" y1="132.75754085988828" x2="142.54489152930353" y2="133.04343975846913"
        stroke="black" />
    <line x1="142.55677361736565" y1="133.05914508332899" x2="142.1796415734722" y2="133.34198939489315"
        stroke="black" />
    <line x1="142.22898455745536" y1="133.40835950182273" x2="141.84893352291044" y2="133.68844078134507"
        stroke="black" />
    <line x1="141.93439095188086" y1="133.80542527934767" x2="141.55101819945568" y2="134.08302041104952"
        stroke="black" />
    <line x1="141.67088555994218" y1="134.25003400394036" x2="141.2837910247346" y2="134.52540219938996"
        stroke="black" />
    <line x1="141.43603186929644" y1="134.741324784762" x2="141.0448227966095" y2="135.01470483915094" stroke="black" />
    <line x1="141.22709816171573" y1="135.2778874549148" x2="140.83139372685963" y2="135.54949528909427"
        stroke="black" />
    <line x1="141.04109444598592" y1="135.8577718996563" x2="140.64053029449877" y2="136.12779841177814"
        stroke="black" />
    <line x1="140.8748117838987" y1="136.4785034603081" x2="140.46904444111664" y2="136.74711270693834"
        stroke="black" />
    <line x1="140.72486351262646" y1="137.1371042948707" x2="140.3135746125482" y2="137.40443201728075"
        stroke="black" />
    <line x1="140.58772785025644" y1="137.830120507944" x2="140.17062813523933" y2="138.0962730149826" stroke="black" />
    <line x1="140.45979136104972" y1="138.55365479579746" x2="140.03662440602477" y2="138.81870821036466"
        stroke="black" />
    <line x1="140.33739275314457" y1="139.30340428812423" x2="139.90793837072957" y2="139.56740415985377"
        stroke="black" />
    <line x1="140.2168664839362" y1="140.07470320688938" x2="139.78094377002915" y2="140.33766448925581"
        stroke="black" />
    <line x1="140.09458565715173" y1="140.86256990547992" x2="139.65205564027178" y2="141.12447729123267"
        stroke="black" />
    <line x1="139.96700371053907" y1="141.66175779875087" x2="139.5177715723051" y2="141.92256640338908"
        stroke="black" />
    <line x1="139.8306944138688" y1="142.46680964717473" x2="139.3747112525288" y2="142.72644602616538"
        stroke="black" />
    <line x1="139.6823897233096" y1="143.27211461671016" x2="139.21965383710312" y2="143.53047809836264"
        stroke="black" />
    <line x1="139.51901506981184" y1="144.07196750072222" x2="139.04957274211188" y2="144.32893181311042"
        stroke="black" />
    <line x1="139.33772169549172" y1="144.86062946174647" x2="138.86166746907622" y2="145.11604462885185"
        stroke="black" />
    <line x1="139.13591569267285" y1="145.63238962945752" x2="138.65339212605687" y2="145.88608410883276"
        stroke="black" />
    <line x1="138.91128344467666" y1="146.38162687716536" x2="138.42248034913354" y2="146.63340990891643"
        stroke="black" />
    <line x1="138.6618132150884" y1="147.10287109271346" x2="138.16696637673823" y2="147.35253522749676"
        stroke="black" />
    <line x1="138.38581268245275" y1="147.7908632609121" x2="137.88520207953485" y2="148.03818703296312"
        stroke="black" />
    <line x1="138.08192226953796" y1="148.44061368362782" x2="137.57586980064323" y2="148.68536439359656"
        stroke="black" />
    <line x1="137.74912416979396" y1="149.04745768030648" x2="137.2379909143526" y2="149.2893942518794"
        stroke="black" />
    <line x1="137.38674702775486" y1="149.6071081358808" x2="136.87093006538862" y2="149.84598400982932"
        stroke="black" />
    <line x1="136.99446628422922" y1="150.11570429446192" x2="136.47439510462502" y2="150.35127032386993"
        stroke="black" />
    <line x1="136.5723002505181" y1="150.56985623562295" x2="136.0484327902048" y2="150.80186354660356"
        stroke="black" />
    <line x1="136.1206020279537" y1="150.9666845150392" x2="135.59342037470708" y2="151.19488729824616"
        stroke="black" />
    <line x1="135.64004743912562" y1="151.3038545022802" x2="135.11005324864354" y2="151.52801270193214"
        stroke="black" />
    <line x1="135.13161918466227" y1="151.5796050050997" x2="134.59932885758846" y2="151.79948687404297"
        stroke="black" />
    <line x1="134.5965874837902" y1="151.79277083102048" x2="134.06252715408766" y2="152.00815532253762"
        stroke="black" />
    <line x1="134.03648749758628" y1="151.94279900269402" x2="133.50118788562997" y2="152.15347797228202"
        stroke="black" />
    <line x1="133.45309387038887" y1="152.02975841269526" x2="132.91708505593388" y2="152.2355386058607"
        stroke="black" />
    <line x1="132.84839275682702" y1="152.05434277532652" x2="132.31219892819072" y2="152.2550475805336"
        stroke="black" />
    <line x1="132.224551728997" y1="152.01786680684765" x2="131.6886859653555" y2="152.2133377560683" stroke="black" />
    <line x1="131.58388798016918" y1="151.92225564049232" x2="131.04884712380039" y2="152.11235364330122"
        stroke="black" />
    <line x1="130.92883525781144" y1="151.7700275578305" x2="130.39509493241712" y2="151.95463385861723"
        stroke="black" />
    <line x1="130.26190996950527" y1="151.56427019264555" x2="129.72991979941852" y2="151.74328704423274"
        stroke="black" />
    <line x1="129.58567691041912" y1="151.30861043666278" x2="129.05585599356343" y2="151.48196148737634"
        stroke="black" />
    <line x1="128.90271506036703" y1="151.0071783473674" x2="128.37544774529738" y2="151.17480874235352"
        stroke="black" />
    <line x1="128.2155838921716" y1="150.66456542596725" x2="127.69121590642439" y2="150.82644162724586"
        stroke="black" />
    <line x1="127.52679062119127" y1="150.2857776975223" x2="127.00562559452902" y2="150.44188703085746"
        stroke="black" />
    <line x1="126.83875880865237" y1="149.87618408463308" x2="126.32105523065076" y2="150.02653402474715"
        stroke="black" />
    <line x1="126.15379870910144" y1="149.44146062017833" x2="125.63976735593542" y2="149.58607782909294"
        stroke="black" />
    <line x1="125.47407972518442" y1="148.98753109278408" x2="124.96388158547455" y2="149.12646022909695"
        stroke="black" />
    <line x1="124.80160530143856" y1="148.5205047604319" x2="124.29535002567559" y2="148.6538070801014"
        stroke="black" />
    <line x1="124.13819055328494" y1="148.04661180238628" x2="123.63593544571563" y2="148.17436357405592"
        stroke="black" />
    <line x1="123.48544288840813" y1="147.572137207022" x2="122.98719245440269" y2="147.69442796705164"
        stroke="black" />
    <line x1="122.84474583572519" y1="147.10335381283366" x2="122.35045189161958" y2="147.22028448698467"
        stroke="black" />
    <line x1="122.21724625273248" y1="146.64645523167292" x2="121.72680859901511" y2="146.75813615180192"
        stroke="black" />
    <line x1="121.60384503575729" y1="146.20748938691787" x2="121.11711268831614" y2="146.31403823205324"
        stroke="black" />
    <line x1="121.00519141013329" y1="145.79229339478653" x2="120.52196437816623" y2="145.89383308658216"
        stroke="black" />
    <line x1="120.42168082917979" y1="145.40643050437671" x2="119.94171242236455" y2="145.50308708715485"
        stroke="black" />
    <line x1="119.85345646271432" y1="145.05512979138112" x2="119.37645610440352" y2="145.1470303267901"
        stroke="black" />
    <line x1="119.30041420828356" y1="144.74322927199415" x2="118.82605072589917" y2="144.8304997777222"
        stroke="black" />
    <line x1="118.76221111196455" y1="144.47512306760208" x2="118.29011647047848" y2="144.5578865286173"
        stroke="black" />
    <line x1="118.23827704105743" y1="144.2547132078141" x2="117.76805048051965" y2="144.33308768725604"
        stroke="black" />
    <line x1="117.72782940882419" y1="144.0853666097185" x2="117.25904194239337" y2="144.15946348487157"
        stroke="black" />
    <line x1="117.2298907121569" y1="143.96987771547936" x2="116.76208993705076" y2="144.03980006223432"
        stroke="black" />
    <line x1="116.74330860717666" y1="143.9104372091379" x2="116.27602377743735" y2="143.9762783560246"
        stroke="black" />
    <line x1="116.2667782157168" y1="143.90860716742617" x2="115.79952552271979" y2="143.97044943771297"
        stroke="black" />
    <line x1="115.79886632782961" y1="143.96530292927312" x2="115.33115433208776" y2="144.02321658680665"
        stroke="black" />
    <line x1="115.33803714221526" y1="144.08078189525997" x2="114.8693722982689" y2="144.13482430670769"
        stroke="black" />
    <line x1="114.88267916808724" y1="144.25463939238685" x2="114.4125713831492" y2="144.30485441537965"
        stroke="black" />
    <line x1="114.43113289868124" y1="144.4858116619864" x2="113.95910106523333" y2="144.53222926538632"
        stroke="black" />
    <line x1="113.98171885853502" y1="144.77258595033442" x2="113.50729630125879" y2="144.81522206951388"
        stroke="black" />
    <line x1="113.53276562390592" y1="145.11261760333693" x2="113.05550540217176" y2="145.15147422999718"
        stroke="black" />
    <line x1="113.08263741826528" y1="145.50295398949098" x2="112.60211742689353" y2="145.5380194922139"
        stroke="black" />
    <line x1="112.62976089266807" y1="145.94006499999387" x2="112.14558870579671" y2="145.97131466845465"
        stroke="black" />
    <line x1="112.17265071382214" y1="146.41987980225258" x2="111.6844681194459" y2="146.4472766048683"
        stroke="black" />
    <line x1="111.70993360069258" y1="146.93782945394227" x2="111.21742077674763" y2="146.96132499572943"
        stroke="black" />
    <line x1="111.24037047322616" y1="147.48889491995308" x2="110.74324975994702" y2="147.5084305845622"
        stroke="black" />
    <line x1="110.7628764039599" y1="148.06765997478118" x2="110.26091563158818" y2="148.083168232098" stroke="black" />
    <line x1="110.2765380945251" y1="148.6683684188313" x2="109.76955343025602" y2="148.67977427722238"
        stroke="black" />
    <line x1="109.78062863395748" y1="149.28498498931756" x2="109.2684869172154" y2="149.29220756958006"
        stroke="black" />
    <line x1="109.27461933381333" y1="149.91125930551246" x2="108.75723987449565" y2="149.9142135118893"
        stroke="black" />
    <line x1="108.75818847587004" y1="150.5407921544604" x2="108.23554429602773" y2="150.5393904167311"
        stroke="black" />
    <line x1="108.23122685112028" y1="151.16710339732865" x2="107.70334535658768" y2="151.16125745699048"
        stroke="black" />
    <line x1="107.69384001328869" y1="151.78370075859556" x2="107.16080308796982" y2="151.77332347153384"
        stroke="black" />
    <line x1="107.14634721562496" y1="152.38414875048738" x2="106.60829073741829" y2="152.3691558782965"
        stroke="black" />
    <line x1="106.58927704566206" y1="152.96213698357454" x2="106.04638982929083" y2="152.9424489458416"
        stroke="black" />
    <line x1="106.02335981836976" y1="153.51154712124537" x2="105.4758819966128" y2="153.48709068164112"
        stroke="black" />
    <line x1="105.44951683308501" y1="154.02651775081188" x2="104.89773769400126" y2="153.9972276107439"
        stroke="black" />
    <line x1="104.86884664317033" y1="154.50150646710014" x2="104.31310194681461" y2="154.467326741958"
        stroke="black" />
    <line x1="104.28260852896973" y1="154.93134849527647" x2="103.72327733274041" y2="154.89223404992106"
        stroke="black" />
    <line x1="103.69220340375199" y1="155.31131121801" x2="103.12970443083049" y2="155.2672288401098" stroke="black" />
    <line x1="103.0991524184357" y1="155.63714401744278" x2="102.53394000871637" y2="155.5880734095104"
        stroke="black" />
    <line x1="102.50507356350671" y1="155.90512289431697" x2="101.93763325091643" y2="155.85105746782307"
        stroke="black" />
    <line x1="101.91165659522991" y1="156.11208938441268" x2="101.34250035935203" y2="156.0530368421155"
        stroke="black" />
    <line x1="101.32063663764339" y1="156.2554833555264" x2="100.75029788104611" y2="156.1914660511202"
        stroke="black" />
    <line x1="100.73376683157575" y1="156.33336933586196" x2="100.1627951371613" y2="156.2644244031747"
        stroke="black" />
    <line x1="100.15279041677638" y1="156.34445609615025" x2="99.58174614178421" y2="156.27063534337103"
        stroke="black" />
    <line x1="99.5794126429887" y1="156.28810928225957" x2="99.00886140797775" y2="156.20947885000498" stroke="black" />
    <line x1="99.01527291028646" y1="156.1643569716676" x2="98.44578004246945" y2="156.08099675706006" stroke="black" />
    <line x1="98.46191753815691" y1="155.97388810508167" x2="97.89404252885514" y2="155.88589095736702"
        stroke="black" />
    <line x1="97.92077355664885" y1="155.71804382283864" x2="97.35506459237293" y2="155.62551451936955"
        stroke="black" />
    <line x1="97.39312390146786" y1="155.39880181361676" x2="96.83011252721407" y2="155.30185582823015"
        stroke="black" />
    <line x1="96.88008437832633" y1="155.01875385957518" x2="96.3202803501205" y2="154.9175159384496" stroke="black" />
    <line x1="96.38258274033842" y1="154.58107683644604" x2="95.82646912187757" y2="154.4756793994026" stroke="black" />
    <line x1="95.90134019604972" y1="154.08949749851482" x2="95.34936875151165" y2="153.98007888637716"
        stroke="black" />
    <line x1="95.43685563512773" y1="153.54825144603575" x2="94.88944256687293" y2="153.4349540370603" stroke="black" />
    <line x1="94.98939282419231" y1="152.96203673569582" x2="94.44691490020752" y2="152.84500495618568"
        stroke="black" />
    <line x1="94.55897078716146" y1="152.33596265256202" x2="94.02176189873695" y2="152.21534090855852"
        stroke="black" />
    <line x1="94.14535754330713" y1="151.67549421388534" x2="93.61370572864674" y2="151.55142477226488"
        stroke="black" />
    <line x1="93.7480673324745" y1="150.98639302062335" x2="93.22221229676455" y2="150.85901386899172" stroke="black" />
    <line x1="93.36636141116831" y1="150.2746551110816" x2="92.84649256813753" y2="150.1440978265367" stroke="black" />
    <line x1="92.9992524560336" y1="149.54644650224836" x2="92.48550751028137" y2="149.4128341593663" stroke="black" />
    <line x1="92.64551256325556" y1="148.80803712787633" x2="92.1379766466759" y2="148.67148227615246" stroke="black" />
    <line x1="92.30368478418842" y1="148.06573389789762" x2="91.80239015373877" y2="147.92633663834934"
        stroke="black" />
    <line x1="91.97209808971614" y1="147.32581361119827" x2="91.4770243876411" y2="147.18365980090795" stroke="black" />
    <line x1="91.64888560906694" y1="146.59445645305675" x2="91.1599606805547" y2="146.44961606511225" stroke="black" />
    <line x1="91.33200594365366" y1="145.87768079969857" x2="90.84910720084854" y2="145.7302064642908" stroke="black" />
    <line x1="91.01926731358724" y1="145.18128003555933" x2="90.54222362896766" y2="145.03120578593695"
        stroke="black" />
    <line x1="90.70835425436995" y1="144.5107620641912" x2="90.23694836079808" y2="144.358102308778" stroke="black" />
    <line x1="90.3968565444558" y1="143.87129216159235" x2="89.93082791377121" y2="143.71604090087092" stroke="black" />
    <line x1="90.08230001135826" y1="143.26763978146985" x2="89.62134817828571" y2="143.10977008525654"
        stroke="black" />
    <line x1="89.76217883523759" y1="142.70412987602535" x2="89.3059671286628" y2="142.5435936335441" stroke="black" />
    <line x1="89.43398894480964" y1="142.18459924381872" x2="88.9821485841986" y2="142.02132719556323" stroke="black" />
    <line x1="89.09526208132331" y1="141.71235835871835" x2="88.64739659226547" y2="141.546260415516" stroke="black" />
    <line x1="88.74360009253527" y1="141.29015907155815" x2="88.29928999211982" y2="141.12112492255878"
        stroke="black" />
    <line x1="88.37670901028133" y1="140.9201685096049" x2="87.93551671030374" y2="140.7480685171604" stroke="black" />
    <line x1="87.99243246255114" y1="140.60394942905924" x2="87.55390733642085" y2="140.4286358046821" stroke="black" />
    <line x1="87.58878397399413" y1="140.34244720336892" x2="87.15246753169602" y2="140.1637554552074" stroke="black" />
    <line x1="87.16397771752413" y1="140.13598355594598" x2="86.72940883209102" y2="139.95373419454128"
        stroke="black" />
    <line x1="86.71645729408353" y1="139.9842570707962" x2="86.28317742277012" y2="139.79825755633527" stroke="black" />
    <line x1="86.24492213753713" y1="139.88635043943498" x2="85.81248048124966" y2="139.69639735033203"
        stroke="black" />
    <line x1="85.74835116688588" y1="139.8407443281274" x2="85.31630971240801" y2="139.64662572760176" stroke="black" />
    <line x1="85.22602333824496" y1="139.84533767678658" x2="84.79396172939599" y2="139.64683565119347"
        stroke="black" />
    <line x1="84.67753478398342" y1="139.897474170607" x2="84.24505497002873" y2="139.69436751066414" stroke="black" />
    <line x1="84.10281226567187" y1="139.99397455847847" x2="83.66954287805046" y2="139.786041552249" stroke="black" />
    <line x1="83.5021227105768" y1="140.13117442916763" x2="83.06772312228338" y2="139.91819573374124" stroke="black" />
    <line x1="82.87607864786857" y1="140.30496699786144" x2="82.44024267358873" y2="140.0867285551482" stroke="black" />
    <line x1="82.22563940992325" y1="140.51085040257624" x2="81.788098609225" y2="140.28714636351611" stroke="black" />
    <line x1="81.5521080155091" y1="140.74397896272964" x2="81.11263456599319" y2="140.51461458354166" stroke="black" />
    <line x1="80.85712370463355" y1="140.99921781135083" x2="80.41553281688476" y2="140.76401228521237"
        stroke="black" />
    <line x1="80.14265014874513" y1="141.27120027840243" x2="79.69880200015038" y2="141.0299894661707" stroke="black" />
    <line x1="79.41095941417498" y1="141.55438737585794" x2="78.96476058411973" y2="141.3070264001214" stroke="black" />
    <line x1="78.66461181049588" y1="141.84312871578754" x2="78.21601620505888" y2="141.58949438366406"
        stroke="black" />
    <line x1="77.90643180820894" y1="142.13172418093814" x2="77.45544106817843" y2="141.87171720260787"
        stroke="black" />
    <line x1="77.13948026117434" y1="142.41448566324505" x2="76.68614365294614" y2="142.14803263520636"
        stroke="black" />
    <line x1="76.36702321784621" y1="142.6857981893884" x2="75.91143701246727" y2="142.4128533138316" stroke="black" />
    <line x1="75.59249765102824" y1="142.94017976382537" x2="75.13480400225724" y2="142.66072627831096"
        stroke="black" />
    <line x1="74.81947447795568" y1="143.17233927852206" x2="74.35985981565926" y2="142.88639057329223"
        stroke="black" />
    <line x1="74.05161928047812" y1="143.37723186462128" x2="73.59031224091135" y2="143.08483226833468"
        stroke="black" />
    <line x1="73.29265116847165" y1="143.55011109417998" x2="72.8299200879408" y2="143.2513363125988" stroke="black" />
    <line x1="72.54630025789497" y1="143.68657747948075" x2="72.08245026092196" y2="143.38153467561506"
        stroke="black" />
    <line x1="71.81626425773722" y1="143.7826227627806" x2="71.35163397508246" y2="143.47145027116017" stroke="black" />
    <line x1="71.10616467715776" y1="143.83466954015714" x2="70.64112263287026" y2="143.51753621220772"
        stroke="black" />
    <line x1="70.41950317513209" y1="143.83960581873626" x2="69.95444388513972" y2="143.51671000063453"
        stroke="black" />
    <line x1="69.7596185797085" y1="143.79481416637404" x2="69.29495840730371" y2="143.4663823151911" stroke="black" />
    <line x1="69.12964510243376" y1="143.69819517611248" x2="68.66581791832199" y2="143.36448012447548"
        stroke="black" />
    <line x1="68.53247226558663" y1="143.54818503369034" x2="68.06992496192304" y2="143.2094639175432" stroke="black" />
    <line x1="67.97070704560757" y1="143.34376704429488" x2="67.50989495463655" y2="143.00033891256936"
        stroke="black" />
    <line x1="67.44663871564644" y1="143.08447704380328" x2="66.98802098416925" y2="142.73666017286538"
        stroke="black" />
    <line x1="66.9622068436632" y1="142.77040268918063" x2="66.50624181458726" y2="142.41853162874887" stroke="black" />
    <line x1="66.51897287027452" y1="142.4021766916828" x2="66.06611352194886" y2="142.04659907247233" stroke="black" />
    <line x1="66.11809565288235" y1="141.9809641242653" x2="65.66878514580787" y2="141.6220372608504" stroke="black" />
    <line x1="65.76031131995188" y1="141.50844400035632" x2="65.31497869878795" y2="141.14653132562285"
        stroke="black" />
    <line x1="65.44591773210004" y1="140.9867853841713" x2="65.00497382869527" y2="140.6222527542114" stroke="black" />
    <line x1="65.1747637954313" y1="140.41861835232086" x2="64.7385973759146" y2="140.05183026266968" stroke="black" />
    <line x1="64.9462438179021" y1="139.80700018193326" x2="64.5152180137146" y2="139.43831593763613" stroke="black" />
    <line x1="64.75929704202548" y1="139.15537719126402" x2="64.33374610119428" y2="138.78514707436602"
        stroke="black" />
    <line x1="64.61241242761123" y1="138.46754270424984" x2="64.19263881860718" y2="138.0961041829009" stroke="black" />
    <line x1="64.50363869716153" y1="137.74759165018946" x2="64.08991059339303" y2="137.37526567364733"
        stroke="black" />
    <line x1="64.43059959472693" y1="136.99987234328626" x2="64.02314876315234" y2="136.62695976666598"
        stroke="black" />
    <line x1="64.39051424719767" y1="136.22893601381955" x2="63.98953435974425" y2="135.85571419548802"
        stroke="black" />
    <line x1="64.38022245589653" y1="135.4394846829594" x2="63.98586783741218" y2="135.06620429600665" stroke="black" />
    <line x1="64.39621468668062" y1="134.63631798651647" x2="64.00859950807346" y2="134.26320008377024"
        stroke="black" />
    <line x1="64.43466646927064" y1="133.8242795591217" x2="64.05386438936972" y2="133.4515129287213" stroke="black" />
    <line x1="64.49147686190288" y1="133.00820358943957" x2="64.11752111646175" y2="132.63594243507927"
        stroke="black" />
    <line x1="64.56231058631019" y1="132.19286214909732" x2="64.19519451753116" y2="131.8212241257115" stroke="black" />
    <line x1="64.64264339111543" y1="131.3829138832024" x2="64.28232140615462" y2="131.01197851513774" stroke="black" />
    <line x1="64.72781015954828" y1="130.58285462884925" x2="64.37419910172582" y2="130.2126621334853" stroke="black" />
    <line x1="64.81305524050927" y1="129.79697050018166" x2="64.46603615244724" y2="129.42752103557075"
        stroke="black" />
    <line x1="64.89358445087754" y1="129.02929394475092" x2="64.5530047045725" y2="128.66054729519772" stroke="black" />
    <line x1="64.96461817200056" y1="128.28356323653665" x2="64.63029393695228" y2="127.91543894517845"
        stroke="black" />
    <line x1="65.02144494485671" y1="127.56318582657553" x2="64.69316396186358" y2="127.19556377901198"
        stroke="black" />
    <line x1="65.05947495670897" y1="126.87120592323208" x2="64.73699958183931" y2="126.50392738114529"
        stroke="black" />
    <line x1="65.07429280735838" y1="126.21027662135651" x2="64.75736328795" y2="125.84314569991537" stroke="black" />
    <line x1="65.06170894546766" y1="125.58263684354996" x2="64.75004688782022" y2="125.2154224212692" stroke="black" />
    <line x1="65.0178091748807" y1="124.99009329818594" x2="64.71112116160926" y2="124.62253134286686" stroke="black" />
    <line x1="64.93900164735676" y1="124.43400759842248" x2="64.63698296118517" y2="124.06580388790013"
        stroke="black" />
    <line x1="64.82206078152655" y1="123.91528862490853" x2="64.52439919162481" y2="123.54612183662638"
        stroke="black" />
    <line x1="64.66416757793822" y1="123.43439015297474" x2="64.37054714475256" y2="123.06391529195818"
        stroke="black" />
    <line x1="64.4629458364936" y1="122.99131370353228" x2="64.17305069137707" y2="122.61916583419051" stroke="black" />
    <line x1="64.21649382499848" y1="122.58561651641074" x2="63.930011881815794" y2="122.21141475981382"
        stroke="black" />
    <line x1="63.92341099551625" y1="122.21642448614963" x2="63.640037552753626" y2="121.83977624104779"
        stroke="black" />
    <line x1="63.58281939820243" y1="121.88244984400012" x2="63.30226059193989" y2="121.50295518692099"
        stroke="black" />
    <line x1="63.19437949972977" y1="121.58201331673651" x2="62.91635557010428" y2="121.19926953404662"
        stroke="black" />
    <line x1="62.758300174652845" y1="121.31307044342805" x2="62.48254851112503" y2="120.92667664631337"
        stroke="black" />
    <line x1="62.27534270242671" y1="121.07324168613435" x2="62.00162063622436" y2="120.68280345806258"
        stroke="black" />
    <line x1="61.746818669561" y1="120.85984593006472" x2="61.47490598507015" y2="120.46497995546324" stroke="black" />
    <line x1="61.17458174480364" y1="120.6699369335215" x2="60.90428288536921" y2="120.27027555615108" stroke="black" />
    <line x1="60.56101336452911" y1="120.5003422583094" x2="60.29215931206396" y2="120.09553791814187" stroke="black" />
    <line x1="59.90900243486065" y1="120.3477041875381" x2="59.64145224679589" y2="119.93743368585788" stroke="black" />
    <line x1="59.22191922568549" y1="120.20852212011201" x2="58.95556121707445" y2="119.79249066404893"
        stroke="black" />
    <line x1="58.50358369883291" y1="120.07919591984489" x2="58.238336261794004" y2="119.6571408995975"
        stroke="black" />
    <line x1="57.758228577495295" y1="119.95606969214107" x2="57.49404063459058" y2="119.527764146745" stroke="black" />
    <line x1="56.990457525722135" y1="119.8354754625553" x2="56.72730861826744" y2="119.40073119316483"
        stroke="black" />
    <line x1="56.20519886478135" y1="119.71377623920674" x2="55.943098881415466" y2="119.27244653245782"
        stroke="black" />
    <line x1="55.40765530666988" y1="119.58740795483574" x2="55.14664386172502" y2="119.13938988290639"
        stroke="black" />
    <line x1="54.60325023343065" y1="119.45291980403096" x2="54.34339570869307" y2="118.99815607246894"
        stroke="black" />
    <line x1="53.79757109360833" y1="119.30701251653548" x2="53.53896936089075" y2="118.8454928357335" stroke="black" />
    <line x1="52.996310523633795" y1="119.14657413820245" x2="52.73908336915483" y2="118.67833609951656"
        stroke="black" />
    <line x1="52.20520583171192" y1="118.9687129267015" x2="51.94949910655271" y2="118.49384236957314" stroke="black" />
    <line x1="51.42997750452489" y1="118.77078700900154" x2="51.17595902837168" y2="118.28941787099662"
        stroke="black" />
    <line x1="50.67626741245215" y1="118.55043049145111" x2="50.42412466040471" y2="118.06274413881101"
        stroke="black" />
    <line x1="49.94957739683688" y1="118.30557576038002" x2="49.69951500123732" y2="117.81179980242511"
        stroke="black" />
    <line x1="49.25520892296491" y1="118.03447176095153" x2="49.00744602395938" y2="117.53487835742155"
        stroke="black" />
    <line x1="48.598204474826005" y1="117.73569809387392" x2="48.35297195469322" y2="117.23060176996945"
        stroke="black" />
    <line x1="47.98329135244642" y1="117.40817482288121" x2="47.740828989602996" y2="116.89792981231906"
        stroke="black" />
    <line x1="47.414828509749356" y1="117.05116793995187" x2="47.17538208876414" y2="116.53616508170276"
        stroke="black" />
    <line x1="46.896757040741285" y1="116.66429048938254" x2="46.6605754546601" y2="116.14495370885983"
        stroke="black" />
    <line x1="46.43255488464304" y1="116.24749940540455" x2="46.19988726544643" y2="115.72428181565937"
        stroke="black" />
    <line x1="46.02519627677466" y1="115.80108817037342" x2="45.796289188874304" y2="115.27446783326914"
        stroke="black" />
    <line x1="45.67711642203043" y1="115.32567545103858" x2="45.45221115237151" y2="114.79615084237241"
        stroke="black" />
    <line x1="45.3901818121814" y1="114.82218991840747" x2="45.16951178877851" y2="114.29027514447604" stroke="black" />
    <line x1="45.16566654762695" y1="114.2918515016814" x2="44.94945491624675" y2="113.75807131780338" stroke="black" />
    <line x1="45.004234959245736" y1="113.73614936813004" x2="44.792692345489804" y2="113.2010340521106"
        stroke="black" />
    <line x1="44.905930757391566" y1="113.15681695810228" x2="44.69925323866196" y2="112.62089709351721"
        stroke="black" />
    <line x1="44.87017286359909" y1="112.55580443721477" x2="44.668540172386244" y2="112.01960566268525"
        stroke="black" />
    <line x1="44.8957580070105" y1="111.93524895574207" x2="44.69933198366637" y2="111.39928673704513" stroke="black" />
    <line x1="44.980870092726775" y1="111.2974431280458" x2="44.789793402422056" y2="110.76221760995216"
        stroke="black" />
    <line x1="45.12309627407038" y1="110.64480216228091" x2="44.93749139902626" y2="110.11079315642498"
        stroke="black" />
    <line x1="45.31944958596969" y1="109.97983008242865" x2="45.139418100350106" y2="109.44749224630246"
        stroke="black" />
    <line x1="45.566397923183516" y1="109.30508549082633" x2="45.392020054280565" y2="108.77484375115824"
        stroke="black" />
    <line x1="45.85989907571498" y1="108.62314731975849" x2="45.69123355130597" y2="108.09539259110738"
        stroke="black" />
    <line x1="46.19544146533014" y1="107.9365810153815" x2="46.03252564337754" y2="107.41166626177383" stroke="black" />
    <line x1="46.56809016238143" y1="107.24790558638392" x2="46.410940435633066" y2="106.72614227027445"
        stroke="black" />
    <line x1="46.97253770188296" y1="106.55956193351479" x2="46.82115016645469" y2="106.04121689230008"
        stroke="black" />
    <line x1="47.40315916268812" y1="105.87388285468737" x2="47.257510536417875" y2="105.35917564048813"
        stroke="black" />
    <line x1="47.854070924319" y1="105.19306509409256" x2="47.71411969760968" y2="104.68216580759494" stroke="black" />
    <line x1="48.319192473065876" y1="104.5191437730022" x2="48.184880272123294" y2="104.01217141686286"
        stroke="black" />
    <line x1="48.79231059291634" y1="103.85396950512718" x2="48.66356373276983" y2="103.3509908768608" stroke="black" />
    <line x1="49.267145248116144" y1="103.19918846098932" x2="49.14387645061481" y2="102.70021759943056"
        stroke="black" />
    <line x1="49.73741644305127" y1="102.55622560427945" x2="49.61952669318303" y2="102.06122379770864"
        stroke="black" />
    <line x1="50.19691133193451" y1="101.9262712791563" x2="50.08429184433848" y2="101.43514763706787" stroke="black" />
    <line x1="50.63955084564741" y1="101.31027128146914" x2="50.53208511210047" y2="100.82288386580782"
        stroke="black" />
    <line x1="51.059455106113745" y1="100.70892049955825" x2="50.957020994078846" y2="100.22507800512236"
        stroke="black" />
    <line x1="51.45100690974593" y1="100.12266016221676" x2="51.35347878177945" y2="99.64212412989815" stroke="black" />
    <line x1="51.808912580709936" y1="99.55167868320305" x2="51.716163404639424" y2="99.07416622386481"
        stroke="black" />
    <line x1="52.128259521798626" y1="98.99591604399367" x2="52.04016294209492" y2="98.52110304514802" stroke="black" />
    <line x1="52.40456982530317" y1="98.45507160987121" x2="52.32100216697385" y2="97.98259639197333" stroke="black" />
    <line x1="52.63384934805596" y1="97.92861522954313" x2="52.554691525665135" y2="97.45808261372117" stroke="black" />
    <line x1="52.812631703331796" y1="97.41580142585396" x2="52.73777100938554" y2="96.94678717031022" stroke="black" />
    <line x1="52.93801667700721" y1="96.91568644532235" x2="52.867348425910095" y2="96.44774200351412" stroke="black" />
    <line x1="53.00770263568806" y1="96.4271478977062" x2="52.94113164174765" y2="95.95980544779728" stroke="black" />
    <line x1="53.02001255975741" y1="95.94890668402923" x2="52.95745443025672" y2="95.4816843760329" stroke="black" />
    <line x1="52.973913403746224" y1="95.47955088289666" x2="52.91529563088561" y2="95.01195824744592" stroke="black" />
    <line x1="52.86902855931601" y1="95.01756124084017" x2="52.81429139780671" y2="94.54910470164683" stroke="black" />
    <line x1="52.705643271655106" y1="94.5613378931531" x2="52.65474039188657" y2="94.09152632397947" stroke="black" />
    <line x1="52.484702937384775" y1="94.1092279274406" x2="52.437601847344474" y2="93.63757819381678" stroke="black" />
    <line x1="52.20780429028455" y1="93.6595533930783" x2="52.164486522738756" y2="93.18559581906597" stroke="black" />
    <line x1="51.87717955940361" y1="93.21063935604968" x2="51.83764062420584" y2="92.73392305707601" stroke="black" />
    <line x1="51.49567376154848" y1="92.76084160024392" x2="51.45992286628415" y2="92.2809396244037" stroke="black" />
    <line x1="51.06671536585975" y1="92.30857358320853" x2="51.03477491131684" y2="91.82508780544046" stroke="black" />
    <line x1="50.59428064136091" y1="91.85233226645649" x2="50.566185501493635" y2="91.36489798262222" stroke="black" />
    <line x1="50.08285206816006" y1="91.39072245755582" x2="50.05864866724332" y2="90.89901262865763" stroke="black" />
    <line x1="49.537371258623445" y1="90.92247932314517" x2="49.5171164611406" y2="90.42620842367529" stroke="black" />
    <line x1="48.963186895582794" y1="90.44648875842407" x2="48.94694672701022" y2="89.9454161871057" stroke="black" />
    <line x1="48.36599824980018" y1="89.96180532920988" x2="48.35384646881479" y2="89.45573834511669" stroke="black" />
    <line x1="47.75179488787535" y1="89.46766753692526" x2="47.74381143258455" y2="88.95646368910536" stroke="black" />
    <line x1="47.12679322398862" y1="88.96351019443172" x2="47.12306255653904" y2="88.44707921865147" stroke="black" />
    <line x1="46.49737060385223" y1="88.44897374095503" x2="46.49797997919069" y2="87.92727890296162" stroke="black" />
</svg>